<?xml version="1.0" encoding="UTF-8"?>
<svg version="1.1" xmlns="http://www.w3.org/2000/svg" width="2048" height="2048">
<path d="M0 0 C1.86296614 -0.0070215 3.72593204 -0.01410832 5.58889771 -0.02125549 C11.51239364 -0.04066359 17.43585048 -0.04568967 23.359375 -0.046875 C24.36816963 -0.04731686 25.37696426 -0.04775871 26.41632843 -0.04821396 C56.74547781 -0.05518299 86.90361524 0.18549341 117.109375 3.203125 C118.00553528 3.29033813 118.90169556 3.37755127 119.82501221 3.46740723 C159.23752608 7.30937472 198.35183658 13.07659996 237.109375 21.203125 C238.39473145 21.47205566 239.68008789 21.74098633 241.00439453 22.01806641 C275.43270999 29.31806586 309.47492637 38.41490108 342.88598633 49.46807861 C345.17230278 50.22392876 347.46011145 50.97514036 349.74804688 51.72607422 C372.90155974 59.34596822 395.61706099 67.81206395 418.109375 77.203125 C418.74796448 77.46891357 419.38655396 77.73470215 420.04449463 78.00854492 C491.25180271 107.67307615 558.21539269 145.59986769 621.109375 190.203125 C621.88313477 190.7511377 622.65689453 191.29915039 623.45410156 191.86376953 C639.91720002 203.55235864 655.75741578 215.98226691 671.36962891 228.77929688 C672.92885827 230.05538804 674.493386 231.32499881 676.05859375 232.59375 C686.52971322 241.09293602 696.74212934 249.87165181 706.6796875 258.98828125 C708.71452915 260.84319317 710.77258747 262.65741298 712.859375 264.453125 C722.26318571 272.64291916 731.28298833 281.27189627 740.03540039 290.15063477 C742.69615092 292.83676462 745.40867943 295.38907795 748.296875 297.828125 C752.03131009 301.01382677 755.18068422 304.57575323 758.41796875 308.2578125 C761.74513576 311.89886319 765.22863098 315.36004954 768.734375 318.828125 C773.08603598 323.14152962 777.36223634 327.44285914 781.31640625 332.12890625 C783.29197325 334.41436611 785.34204769 336.61739653 787.40429688 338.82446289 C792.48096184 344.25803184 797.31548701 349.79891357 801.97265625 355.6015625 C804.06819994 358.15299229 806.24900655 360.58639273 808.484375 363.015625 C812.46199185 367.38549819 816.11814094 371.93922036 819.73730469 376.60424805 C823.33403439 381.23705993 827.01834988 385.79064 830.734375 390.328125 C836.03635739 396.82683174 841.17007025 403.42303711 846.109375 410.203125 C846.58842285 410.86006348 847.0674707 411.51700195 847.56103516 412.19384766 C859.05564431 427.98416873 870.40568791 443.86372123 881.109375 460.203125 C881.53541016 460.8518457 881.96144531 461.50056641 882.40039062 462.16894531 C900.68270617 490.05286214 917.46474747 518.76033885 933.109375 548.203125 C933.64272461 549.20134277 934.17607422 550.19956055 934.72558594 551.22802734 C943.46340269 567.61471371 951.46525219 584.28050123 959.109375 601.203125 C959.58616699 602.25467773 960.06295898 603.30623047 960.55419922 604.38964844 C985.11332735 658.73434849 1004.62236309 715.37039083 1019.109375 773.203125 C1019.2952417 773.94119385 1019.4811084 774.6792627 1019.67260742 775.43969727 C1033.38167229 829.95231291 1042.22237994 885.56913768 1046.796875 941.578125 C1046.88828262 942.69252457 1046.88828262 942.69252457 1046.98153687 943.82943726 C1048.47605402 962.28632558 1049.26918423 980.70968686 1049.3125 999.2265625 C1049.31948023 1001.09113588 1049.32652118 1002.95570904 1049.33361816 1004.82028198 C1049.35287623 1010.73956604 1049.35779318 1016.65881301 1049.359375 1022.578125 C1049.35996414 1023.58550217 1049.36055328 1024.59287933 1049.36116028 1025.63078308 C1049.37320253 1054.79175109 1049.19301366 1083.80771968 1046.33721924 1112.85516357 C1046.10441009 1115.25428899 1045.88604669 1117.65436234 1045.67138672 1120.05517578 C1041.08410278 1171.04493268 1032.34597658 1221.50822984 1020.109375 1271.203125 C1019.91408203 1271.99632141 1019.71878906 1272.78951782 1019.51757812 1273.60675049 C1013.55944643 1297.70658205 1006.60579727 1321.42389763 998.83532715 1344.99987793 C998.13660489 1347.12048294 997.4416031 1349.2422777 996.74707031 1351.36425781 C982.67406805 1394.22484942 965.06842394 1435.77207627 945.109375 1476.203125 C944.38664457 1477.67704696 943.66397627 1479.15099939 942.94140625 1480.625 C941.40752435 1483.737537 939.84745055 1486.83582721 938.27050781 1489.92675781 C937.39217662 1491.64870063 936.51709277 1493.37230038 935.64355469 1495.09667969 C927.79854293 1510.55720733 919.54538936 1525.68166071 910.66992188 1540.57421875 C909.26440783 1542.94195579 907.87695125 1545.31870083 906.5 1547.703125 C881.52718493 1590.87877318 852.19371985 1631.9271151 820.54931641 1670.44726562 C819.26571799 1672.01248092 817.98974428 1673.583942 816.71484375 1675.15625 C808.2186202 1685.62727146 799.43950678 1695.83734154 790.32421875 1705.7734375 C788.46930683 1707.80827915 786.65508702 1709.86633747 784.859375 1711.953125 C776.46874722 1721.58462027 767.61323764 1730.79629006 758.52416992 1739.7668457 C755.11318806 1743.14829069 751.92961154 1746.64828083 748.82641602 1750.31616211 C747.1207162 1752.19066145 745.34439148 1753.79440861 743.41015625 1755.4296875 C739.09784448 1759.15671815 735.09870589 1763.13587749 731.109375 1767.203125 C726.55342706 1771.8480563 721.93354221 1776.31297704 717.00244141 1780.55957031 C714.1989904 1782.99351824 711.50414154 1785.53843283 708.796875 1788.078125 C703.92351951 1792.61661024 698.90633523 1796.89661297 693.7109375 1801.06640625 C691.15950771 1803.16194994 688.72610727 1805.34275655 686.296875 1807.578125 C681.92236674 1811.55996087 677.36408425 1815.22054583 672.69287109 1818.84204102 C668.87622932 1821.80357984 665.11725783 1824.82272329 661.38964844 1827.89550781 C652.65004165 1835.09104511 643.63166013 1841.84906829 634.46777344 1848.49316406 C632.21199471 1850.1287204 629.96104915 1851.77072253 627.7109375 1853.4140625 C611.19157234 1865.44721355 594.5575427 1877.32693761 577.10351562 1887.97265625 C574.97132245 1889.28830924 572.85937183 1890.632451 570.75 1891.984375 C553.11415021 1903.28078576 535.00100583 1913.7974084 516.61962891 1923.83251953 C514.80538981 1924.82309902 512.99276489 1925.81663681 511.18115234 1926.81201172 C497.04318706 1934.57158548 482.80536522 1941.95532224 468.18408203 1948.76074219 C464.93803795 1950.28350131 461.70898322 1951.83888113 458.48046875 1953.3984375 C400.32249029 1981.29028283 338.62682139 2002.54259981 276.109375 2018.203125 C275.37130615 2018.3889917 274.6332373 2018.5748584 273.87280273 2018.76635742 C222.89096663 2031.58748681 170.85022877 2040.39918551 118.480896 2044.99023438 C116.13656116 2045.20068451 113.794168 2045.42642506 111.45166016 2045.65625 C54.18169321 2051.19090931 -6.08729434 2051.22115165 -63.33905029 2045.45959473 C-66.04062359 2045.188048 -68.74311052 2044.92717293 -71.44580078 2044.66699219 C-160.30628974 2036.01099102 -247.53699533 2016.49949328 -416.890625 1949.203125 C-418.75641336 1948.33182339 -420.62229643 1947.46072454 -422.48828125 1946.58984375 C-448.52947338 1934.37994181 -474.25601711 1920.68886129 -498.72021484 1905.54248047 C-501.48514319 1903.8362491 -504.26054295 1902.14746617 -507.03515625 1900.45703125 C-518.11237435 1893.69405605 -529.16264629 1886.91307198 -539.87451172 1879.58007812 C-542.26049212 1877.95051534 -544.65567639 1876.33487076 -547.05078125 1874.71875 C-566.13494295 1861.81353826 -584.65125078 1848.27522498 -602.890625 1834.203125 C-603.55578125 1833.69007812 -604.2209375 1833.17703125 -604.90625 1832.6484375 C-622.64219981 1818.92960453 -639.93678517 1804.57708241 -656.4609375 1789.41796875 C-658.49577915 1787.56305683 -660.55383747 1785.74883702 -662.640625 1783.953125 C-672.27212027 1775.56249722 -681.48379006 1766.70698764 -690.4543457 1757.61791992 C-693.83579069 1754.20693806 -697.33578083 1751.02336154 -701.00366211 1747.92016602 C-702.87816145 1746.2144662 -704.48190861 1744.43814148 -706.1171875 1742.50390625 C-709.84421815 1738.19159448 -713.82337749 1734.19245589 -717.890625 1730.203125 C-722.5355563 1725.64717706 -727.00047704 1721.02729221 -731.24707031 1716.09619141 C-733.68101824 1713.2927404 -736.22593283 1710.59789154 -738.765625 1707.890625 C-743.30411024 1703.01726951 -747.58411297 1698.00008523 -751.75390625 1692.8046875 C-753.84944994 1690.25325771 -756.03025655 1687.81985727 -758.265625 1685.390625 C-762.24324185 1681.02075181 -765.89939094 1676.46702964 -769.51855469 1671.80200195 C-773.11528439 1667.16919007 -776.79959988 1662.61561 -780.515625 1658.078125 C-785.81760739 1651.57941826 -790.95132025 1644.98321289 -795.890625 1638.203125 C-796.36967285 1637.54618652 -796.8487207 1636.88924805 -797.34228516 1636.21240234 C-808.83689431 1620.42208127 -820.18693791 1604.54252877 -830.890625 1588.203125 C-831.52967773 1587.23004395 -831.52967773 1587.23004395 -832.18164062 1586.23730469 C-850.2324661 1558.70645309 -866.83302715 1530.39147182 -882.24707031 1501.30224609 C-883.81572024 1498.34436698 -885.3955671 1495.3926992 -886.9765625 1492.44140625 C-894.86253009 1477.62725488 -901.9773884 1462.49234851 -908.890625 1447.203125 C-909.60798828 1445.62144531 -909.60798828 1445.62144531 -910.33984375 1444.0078125 C-934.89690076 1389.66586561 -954.40443765 1333.0325675 -968.890625 1275.203125 C-969.0764917 1274.46505615 -969.2623584 1273.7269873 -969.45385742 1272.96655273 C-980.5709885 1228.76048186 -988.50565375 1183.86843324 -993.578125 1138.578125 C-993.72343155 1137.31411362 -993.72343155 1137.31411362 -993.87167358 1136.02456665 C-997.87569006 1100.78189064 -999.40859782 1065.42413928 -999.28173828 1029.97363281 C-999.26464819 1025.16500959 -999.27485164 1020.35688516 -999.29206085 1015.54827881 C-999.39852722 980.33520233 -997.6410977 945.2003769 -993.640625 910.203125 C-993.53835602 909.28561462 -993.43608704 908.36810425 -993.33071899 907.42279053 C-985.93345701 841.41033602 -972.42373539 775.57240609 -951.62963867 712.44696045 C-950.848982 710.07668615 -950.07392909 707.70461592 -949.29882812 705.33251953 C-941.07725668 680.2552961 -931.96113245 655.59600697 -921.890625 631.203125 C-921.61881409 630.54411194 -921.34700317 629.88509888 -921.06695557 629.20611572 C-892.0151779 558.95322965 -854.66833149 492.09691279 -810.39697266 430.30664062 C-808.8418046 428.13495052 -807.29399683 425.95812262 -805.74609375 423.78125 C-794.51265771 408.04283582 -782.56990765 392.8943691 -770.31445312 377.94287109 C-769.03836196 376.38364173 -767.76875119 374.819114 -766.5 373.25390625 C-758.00081398 362.78278678 -749.22209819 352.57037066 -740.10546875 342.6328125 C-738.25055683 340.59797085 -736.43633702 338.53991253 -734.640625 336.453125 C-726.24999722 326.82162973 -717.39448764 317.60995994 -708.30541992 308.6394043 C-704.89443806 305.25795931 -701.71086154 301.75796917 -698.60766602 298.09008789 C-696.9019662 296.21558855 -695.12564148 294.61184139 -693.19140625 292.9765625 C-688.87909448 289.24953185 -684.87995589 285.27037251 -680.890625 281.203125 C-676.33467706 276.5581937 -671.71479221 272.09327296 -666.78369141 267.84667969 C-663.9802404 265.41273176 -661.28539154 262.86781717 -658.578125 260.328125 C-653.70476951 255.78963976 -648.68758523 251.50963703 -643.4921875 247.33984375 C-640.94075771 245.24430006 -638.50735727 243.06349345 -636.078125 240.828125 C-631.70825181 236.85050815 -627.15452964 233.19435906 -622.48950195 229.57519531 C-617.85669007 225.97846561 -613.30311 222.29415012 -608.765625 218.578125 C-602.26691826 213.27614261 -595.67071289 208.14242975 -588.890625 203.203125 C-587.90521729 202.48455322 -587.90521729 202.48455322 -586.89990234 201.75146484 C-571.10958127 190.25685569 -555.23002877 178.90681209 -538.890625 168.203125 C-538.2419043 167.77708984 -537.59318359 167.35105469 -536.92480469 166.91210938 C-509.04088786 148.62979383 -480.33341115 131.84775253 -450.890625 116.203125 C-449.89240723 115.66977539 -448.89418945 115.13642578 -447.86572266 114.58691406 C-431.48183795 105.85059123 -414.8366818 97.78791668 -397.890625 90.203125 C-396.85424896 89.73876038 -396.85424896 89.73876038 -395.79693604 89.26501465 C-317.77646074 54.36512507 -235.85698962 29.01262032 0 0 Z " fill="#D80027" transform="translate(998.890625,-0.203125)"/>
<path d="M0 0 C35.52375664 4.73650089 35.52375664 4.73650089 51.4375 7.6875 C52.81243622 7.9398642 52.81243622 7.9398642 54.21514893 8.19732666 C73.96077026 11.83562262 93.51432729 16.16721025 113 21 C113.79386108 21.19658203 114.58772217 21.39316406 115.40563965 21.59570312 C139.22669875 27.5133202 162.69039159 34.3177353 186 42 C187.1437207 42.37511719 187.1437207 42.37511719 188.31054688 42.7578125 C212.2507845 50.61164566 235.7496271 59.29243184 259 69 C259.63858948 69.26578857 260.27717896 69.53157715 260.93511963 69.80541992 C332.14242771 99.46995115 399.10601769 137.39674269 462 182 C462.77375977 182.5480127 463.54751953 183.09602539 464.34472656 183.66064453 C480.80782502 195.34923364 496.64804078 207.77914191 512.26025391 220.57617188 C513.81948327 221.85226304 515.384011 223.12187381 516.94921875 224.390625 C527.42033822 232.88981102 537.63275434 241.66852681 547.5703125 250.78515625 C549.60515415 252.64006817 551.66321247 254.45428798 553.75 256.25 C563.15381071 264.43979416 572.17361333 273.06877127 580.92602539 281.94750977 C583.58677592 284.63363962 586.29930443 287.18595295 589.1875 289.625 C592.92193509 292.81070177 596.07130922 296.37262823 599.30859375 300.0546875 C602.63576076 303.69573819 606.11925598 307.15692454 609.625 310.625 C613.97666098 314.93840462 618.25286134 319.23973414 622.20703125 323.92578125 C624.18259825 326.21124111 626.23267269 328.41427153 628.29492188 330.62133789 C633.37158684 336.05490684 638.20611201 341.59578857 642.86328125 347.3984375 C644.95882494 349.94986729 647.13963155 352.38326773 649.375 354.8125 C653.35261685 359.18237319 657.00876594 363.73609536 660.62792969 368.40112305 C664.22465939 373.03393493 667.90897488 377.587515 671.625 382.125 C676.92698239 388.62370674 682.06069525 395.21991211 687 402 C687.47904785 402.65693848 687.9580957 403.31387695 688.45166016 403.99072266 C699.94626931 419.78104373 711.29631291 435.66059623 722 452 C722.42603516 452.6487207 722.85207031 453.29744141 723.29101562 453.96582031 C741.57333117 481.84973714 758.35537247 510.55721385 774 540 C774.53334961 540.99821777 775.06669922 541.99643555 775.61621094 543.02490234 C784.35402769 559.41158871 792.35587719 576.07737623 800 593 C800.47679199 594.05155273 800.95358398 595.10310547 801.44482422 596.18652344 C826.00395235 650.53122349 845.51298809 707.16726583 860 765 C860.1858667 765.73806885 860.3717334 766.4761377 860.56323242 767.23657227 C869.29505378 801.95771669 875.87262368 837.06617883 880.96875 872.49609375 C881.0745639 873.23048172 881.18037781 873.96486969 881.28939819 874.72151184 C882 879.75217487 882 879.75217487 882 882 C590.94 882 299.88 882 0 882 C0 590.94 0 299.88 0 0 Z " fill="#EFEFEF" transform="translate(1158,8)"/>
<path d="M0 0 C0 291.06 0 582.12 0 882 C-291.06 882 -582.12 882 -882 882 C-880.09047054 866.72376433 -878.10384758 851.62634672 -875.375 836.5 C-875.20392731 835.54499603 -875.03285461 834.58999207 -874.8565979 833.60604858 C-866.60410108 787.74325454 -855.33812073 742.3750908 -840.70318604 698.12780762 C-839.99591745 695.98764639 -839.29334512 693.84598409 -838.59130859 691.70410156 C-809.46125708 603.08061065 -767.39499756 519.31428515 -701.50634766 422.10351562 C-699.9511796 419.93182552 -698.40337183 417.75499762 -696.85546875 415.578125 C-685.62203271 399.83971082 -673.67928265 384.6912441 -661.42382812 369.73974609 C-660.14773696 368.18051673 -658.87812619 366.615989 -657.609375 365.05078125 C-649.11018898 354.57966178 -640.33147319 344.36724566 -631.21484375 334.4296875 C-629.35993183 332.39484585 -627.54571202 330.33678753 -625.75 328.25 C-617.35937222 318.61850473 -608.50386264 309.40683494 -599.41479492 300.4362793 C-596.00381306 297.05483431 -592.82023654 293.55484417 -589.71704102 289.88696289 C-588.0113412 288.01246355 -586.23501648 286.40871639 -584.30078125 284.7734375 C-579.98846948 281.04640685 -575.98933089 277.06724751 -572 273 C-567.44405206 268.3550687 -562.82416721 263.89014796 -557.89306641 259.64355469 C-555.0896154 257.20960676 -552.39476654 254.66469217 -549.6875 252.125 C-544.81414451 247.58651476 -539.79696023 243.30651203 -534.6015625 239.13671875 C-532.05013271 237.04117506 -529.61673227 234.86036845 -527.1875 232.625 C-522.81762681 228.64738315 -518.26390464 224.99123406 -513.59887695 221.37207031 C-508.96606507 217.77534061 -504.412485 214.09102512 -499.875 210.375 C-493.37629326 205.07301761 -486.78008789 199.93930475 -480 195 C-479.01459229 194.28142822 -479.01459229 194.28142822 -478.00927734 193.54833984 C-462.21895627 182.05373069 -446.33940377 170.70368709 -430 160 C-429.3512793 159.57396484 -428.70255859 159.14792969 -428.03417969 158.70898438 C-400.15026286 140.42666883 -371.44278615 123.64462753 -342 108 C-341.00178223 107.46665039 -340.00356445 106.93330078 -338.97509766 106.38378906 C-322.59121295 97.64746623 -305.9460568 89.58479168 -289 82 C-287.96362396 81.53563538 -287.96362396 81.53563538 -286.90631104 81.06188965 C-208.62589173 46.04572268 -126.14823379 20.17807113 0 0 Z " fill="#EFEFEF" transform="translate(890,8)"/>
<path d="M0 0 C291.06 0 582.12 0 882 0 C877.26349911 35.52375664 877.26349911 35.52375664 874.3125 51.4375 C874.0601358 52.81243622 874.0601358 52.81243622 873.80267334 54.21514893 C870.16426859 73.96136067 865.82648968 93.51235347 861 113 C860.80577454 113.78679138 860.61154907 114.57358276 860.41143799 115.38421631 C854.446239 139.48973521 847.49876659 163.21365983 839.72595215 186.79675293 C839.02722989 188.91735794 838.3322281 191.0391527 837.63769531 193.16113281 C823.56469305 236.02172442 805.95904894 277.56895127 786 318 C785.27726957 319.47392196 784.55460127 320.94787439 783.83203125 322.421875 C782.29814935 325.534412 780.73807555 328.63270221 779.16113281 331.72363281 C778.28280162 333.44557563 777.40771777 335.16917538 776.53417969 336.89355469 C768.68916793 352.35408233 760.43601436 367.47853571 751.56054688 382.37109375 C750.15503283 384.73883079 748.76757625 387.11557583 747.390625 389.5 C722.41780993 432.67564818 693.08434485 473.7239901 661.43994141 512.24414062 C660.15634299 513.80935592 658.88036928 515.380817 657.60546875 516.953125 C649.1092452 527.42414646 640.33013178 537.63421654 631.21484375 547.5703125 C629.35993183 549.60515415 627.54571202 551.66321247 625.75 553.75 C617.35937222 563.38149527 608.50386264 572.59316506 599.41479492 581.5637207 C596.00381306 584.94516569 592.82023654 588.44515583 589.71704102 592.11303711 C588.0113412 593.98753645 586.23501648 595.59128361 584.30078125 597.2265625 C579.98846948 600.95359315 575.98933089 604.93275249 572 609 C567.44405206 613.6449313 562.82416721 618.10985204 557.89306641 622.35644531 C555.0896154 624.79039324 552.39476654 627.33530783 549.6875 629.875 C544.81414451 634.41348524 539.79696023 638.69348797 534.6015625 642.86328125 C532.05013271 644.95882494 529.61673227 647.13963155 527.1875 649.375 C522.81299174 653.35683587 518.25470925 657.01742083 513.58349609 660.63891602 C509.76685432 663.60045484 506.00788283 666.61959829 502.28027344 669.69238281 C493.54066665 676.88792011 484.52228513 683.64594329 475.35839844 690.29003906 C473.10261971 691.9255954 470.85167415 693.56759753 468.6015625 695.2109375 C452.08219734 707.24408855 435.4481677 719.12381261 417.99414062 729.76953125 C415.86194745 731.08518424 413.74999683 732.429326 411.640625 733.78125 C394.00477521 745.07766076 375.89163083 755.5942834 357.51025391 765.62939453 C355.69601481 766.61997402 353.88338989 767.61351181 352.07177734 768.60888672 C337.93381206 776.36846048 323.69599022 783.75219724 309.07470703 790.55761719 C305.82866295 792.08037631 302.59960822 793.63575613 299.37109375 795.1953125 C241.21311529 823.08715783 179.51744639 844.33947481 117 860 C116.26193115 860.1858667 115.5238623 860.3717334 114.76342773 860.56323242 C80.04228331 869.29505378 44.93382117 875.87262368 9.50390625 880.96875 C8.76951828 881.0745639 8.03513031 881.18037781 7.27848816 881.28939819 C2.24782513 882 2.24782513 882 0 882 C0 590.94 0 299.88 0 0 Z " fill="#EFEFEF" transform="translate(1158,1158)"/>
<path d="M0 0 C291.06 0 582.12 0 882 0 C882 291.06 882 582.12 882 882 C846.3206015 877.24274687 846.3206015 877.24274687 830.8125 874.375 C829.9026535 874.20836853 828.99280701 874.04173706 828.0553894 873.87005615 C782.26282098 865.4412759 737.22452468 853.51068496 693 839 C692.3311377 838.78148376 691.66227539 838.56296753 690.97314453 838.33782959 C637.10875296 820.72717699 583.67043902 798.35047825 534 771 C532.28010006 770.06217014 530.56018471 769.12436843 528.84002686 768.18701172 C503.69696115 754.475724 503.69696115 754.475724 492.17041016 747.33935547 C489.40548181 745.6331241 486.63008205 743.94434117 483.85546875 742.25390625 C472.77825065 735.49093105 461.72797871 728.70994698 451.01611328 721.37695312 C448.63013288 719.74739034 446.23494861 718.13174576 443.83984375 716.515625 C424.75568205 703.61041326 406.23937422 690.07209998 388 676 C387.33484375 675.48695313 386.6696875 674.97390625 385.984375 674.4453125 C368.24842519 660.72647953 350.95383983 646.37395741 334.4296875 631.21484375 C332.39484585 629.35993183 330.33678753 627.54571202 328.25 625.75 C318.61850473 617.35937222 309.40683494 608.50386264 300.4362793 599.41479492 C297.05483431 596.00381306 293.55484417 592.82023654 289.88696289 589.71704102 C288.01246355 588.0113412 286.40871639 586.23501648 284.7734375 584.30078125 C281.04640685 579.98846948 277.06724751 575.98933089 273 572 C268.3550687 567.44405206 263.89014796 562.82416721 259.64355469 557.89306641 C257.20960676 555.0896154 254.66469217 552.39476654 252.125 549.6875 C247.58651476 544.81414451 243.30651203 539.79696023 239.13671875 534.6015625 C237.04117506 532.05013271 234.86036845 529.61673227 232.625 527.1875 C228.64738315 522.81762681 224.99123406 518.26390464 221.37207031 513.59887695 C217.77534061 508.96606507 214.09102512 504.412485 210.375 499.875 C205.07301761 493.37629326 199.93930475 486.78008789 195 480 C194.28142822 479.01459229 194.28142822 479.01459229 193.54833984 478.00927734 C182.05373069 462.21895627 170.70368709 446.33940377 160 430 C159.57396484 429.3512793 159.14792969 428.70255859 158.70898438 428.03417969 C140.6581589 400.50332809 124.05759785 372.18834682 108.64355469 343.09912109 C107.07490476 340.14124198 105.4950579 337.1895742 103.9140625 334.23828125 C96.02809491 319.42412988 88.9132366 304.28922351 82 289 C81.28263672 287.41832031 81.28263672 287.41832031 80.55078125 285.8046875 C55.99372424 231.46274061 36.48618735 174.8294425 22 117 C21.72119995 115.89289673 21.72119995 115.89289673 21.43676758 114.76342773 C12.77811687 80.33323849 6.24067665 45.4923102 1.03125 10.3828125 C0.9254361 9.67546463 0.81962219 8.96811676 0.71060181 8.23933411 C0.30565735 5.45852445 0 2.81509398 0 0 Z " fill="#EFEFEF" transform="translate(8,1158)"/>
<path d="M0 0 C12.40129917 2.25478167 12.40129917 2.25478167 18.40234375 4.07421875 C19.06557648 4.27439606 19.7288092 4.47457336 20.41213989 4.68081665 C22.58978133 5.34177036 24.76387168 6.01347298 26.9375 6.6875 C27.70311249 6.92342865 28.46872498 7.1593573 29.25753784 7.4024353 C62.03913512 17.52457972 94.35662808 28.73023049 126 42 C127.2654289 42.52774921 128.53089053 43.05541997 129.79638672 43.58300781 C209.80467914 77.0330994 288.2687632 120.53774818 356 175 C355.13265927 179.52199911 352.53618462 181.87856548 349.35119629 185.02074051 C348.75265776 185.62304017 348.15411922 186.22533983 347.53744316 186.845891 C345.51446344 188.87786885 343.48089002 190.89890651 341.44726562 192.92022705 C339.98629586 194.38321969 338.5259838 195.84686938 337.06627655 197.3111217 C333.04105198 201.34502551 329.00648225 205.36946962 324.97037506 209.39248085 C320.62410291 213.72788683 316.28645733 218.07190841 311.94775391 222.41488647 C304.42529696 229.94233472 296.89735547 237.4642573 289.36547852 244.98227692 C281.46429883 252.86893669 273.56600382 260.75846598 265.67163086 268.65193939 C264.93580152 269.38767709 264.93580152 269.38767709 264.18510693 270.13827818 C262.19396674 272.12918887 260.20284772 274.12012071 258.21175656 276.11108042 C240.05894955 294.26267552 221.89890506 312.4070119 203.734375 330.546875 C186.57331029 347.68464009 169.41681796 364.82696468 152.265625 381.97460938 C151.7371438 382.50297906 151.20866259 383.03134875 150.66416681 383.57572964 C148.53360135 385.70584626 146.40303932 387.83596631 144.27247748 389.96608655 C143.21080007 391.02754357 142.14912221 392.08900014 141.08744389 393.15045626 C140.02842426 394.20925453 138.96940592 395.26805409 137.91038889 396.32685495 C121.06465472 413.16907757 104.21494723 430.00732443 87.36455297 446.84488453 C82.42650243 451.77921219 77.48868153 456.71376934 72.55136108 461.64882755 C62.16648901 472.02889683 51.78042325 482.40776344 41.38988209 492.78215888 C37.09089789 497.0745152 32.79270691 501.3676578 28.49664307 505.66293716 C24.57095788 509.58783996 20.64299173 513.51044427 16.71311283 517.4311479 C15.28494113 518.85679506 13.85762558 520.28330045 12.43121243 521.7107071 C10.50602231 523.63697987 8.57783952 525.5602037 6.64880371 527.48262405 C5.80126557 528.3328164 5.80126557 528.3328164 4.93660545 529.20018435 C1.11415943 533 1.11415943 533 0 533 C0 357.11 0 181.22 0 0 Z " fill="#0052B4" transform="translate(1291,35)"/>
<path d="M0 0 C4.52199911 0.86734073 6.87856548 3.46381538 10.02074051 6.64880371 C10.92419 7.54661151 10.92419 7.54661151 11.845891 8.46255684 C13.87786885 10.48553656 15.89890651 12.51910998 17.92022705 14.55273438 C19.38321969 16.01370414 20.84686938 17.4740162 22.3111217 18.93372345 C26.34502551 22.95894802 30.36946962 26.99351775 34.39248085 31.02962494 C38.72788683 35.37589709 43.07190841 39.71354267 47.41488647 44.05224609 C54.94233472 51.57470304 62.4642573 59.10264453 69.98227692 66.63452148 C77.86893669 74.53570117 85.75846598 82.43399618 93.65193939 90.32836914 C94.14243119 90.81892204 94.632923 91.30947493 95.13827818 91.81489307 C97.12918887 93.80603326 99.12012071 95.79715228 101.11108042 97.78824344 C119.26267552 115.94105045 137.4070119 134.10109494 155.546875 152.265625 C172.68464009 169.42668971 189.82696468 186.58318204 206.97460938 203.734375 C207.50297906 204.2628562 208.03134875 204.79133741 208.57572964 205.33583319 C210.70584626 207.46639865 212.83596631 209.59696068 214.96608655 211.72752252 C216.02754357 212.78919993 217.08900014 213.85087779 218.15045626 214.91255611 C219.20925453 215.97157574 220.26805409 217.03059408 221.32685495 218.08961111 C238.16907757 234.93534528 255.00732443 251.78505277 271.84488453 268.63544703 C276.77921219 273.57349757 281.71376934 278.51131847 286.64882755 283.44863892 C297.02889683 293.83351099 307.40776344 304.21957675 317.78215888 314.61011791 C322.0745152 318.90910211 326.3676578 323.20729309 330.66293716 327.50335693 C334.58783996 331.42904212 338.51044427 335.35700827 342.4311479 339.28688717 C343.85679506 340.71505887 345.28330045 342.14237442 346.7107071 343.56878757 C348.63697987 345.49397769 350.5602037 347.42216048 352.48262405 349.35119629 C353.04941895 349.91622171 353.61621385 350.48124714 354.20018435 351.06339455 C358 354.88584057 358 354.88584057 358 356 C182.11 356 6.22 356 -175 356 C-172.74555376 343.60054568 -172.74555376 343.60054568 -170.890625 337.4921875 C-170.68775879 336.82088806 -170.48489258 336.14958862 -170.27587891 335.45794678 C-169.60844258 333.26113603 -168.93036637 331.0678385 -168.25 328.875 C-168.01212769 328.10355652 -167.77425537 327.33211304 -167.5291748 326.53729248 C-157.4237997 293.82340851 -146.06655734 261.64994341 -133 230 C-132.72818909 229.34098694 -132.45637817 228.68197388 -132.17633057 228.00299072 C-102.77507518 156.9049991 -64.82787706 89.49985782 -20 27 C-19.44892578 26.22962402 -18.89785156 25.45924805 -18.33007812 24.66552734 C-6.13897111 7.6346477 -6.13897111 7.6346477 0 0 Z " fill="#0052B4" transform="translate(210,401)"/>
<path d="M0 0 C2.22239734 1.19784598 3.25398836 2.49583502 4.72153533 4.55108643 C5.27325408 5.3121167 5.82497283 6.07314697 6.39341033 6.85723877 C6.97735564 7.68562256 7.56130095 8.51400635 8.16294158 9.36749268 C8.77911345 10.22423584 9.39528533 11.080979 10.03012908 11.96368408 C11.31147874 13.74650264 12.58861538 15.5323562 13.86167204 17.32110596 C15.57074208 19.71344581 17.29997203 22.08882619 19.04184783 24.45733643 C27.29919862 35.71013676 35.07391004 47.25882598 42.72544158 58.92999268 C43.21254607 59.67104248 43.69965056 60.41209229 44.20151579 61.17559814 C62.43382213 88.95481743 79.13531431 117.58977463 94.72544158 146.92999268 C95.25879118 147.92821045 95.79214079 148.92642822 96.34165251 149.95489502 C105.07946926 166.34158139 113.08131877 183.00736891 120.72544158 199.92999268 C121.20223357 200.98154541 121.67902556 202.03309814 122.17026579 203.11651611 C137.68133721 237.43957998 150.8102441 272.65315234 162.53794158 308.42999268 C162.85268431 309.38583252 163.16742705 310.34167236 163.49170744 311.32647705 C166.95543387 321.8708463 170.23376595 332.44561162 173.17466033 343.14874268 C173.43318282 344.08601196 173.69170531 345.02328125 173.95806181 345.98895264 C174.30830664 347.28911316 174.30830664 347.28911316 174.66562712 348.61553955 C174.8712477 349.378302 175.07686827 350.14106445 175.28871977 350.92694092 C175.72544158 352.92999268 175.72544158 352.92999268 175.72544158 355.92999268 C-0.16455842 355.92999268 -176.05455842 355.92999268 -357.27455842 355.92999268 C-353.31314465 351.30834327 -349.3881096 346.89706408 -345.09698236 342.61540222 C-344.50201526 342.0177833 -343.90704817 341.42016438 -343.29405177 340.80443579 C-341.3085579 338.81130918 -339.31957179 336.82170597 -337.33055818 334.83209229 C-335.88847098 333.3859866 -334.44659424 331.939671 -333.00490952 330.49316406 C-329.04930529 326.52563358 -325.09058017 322.56123007 -321.13129747 318.59737086 C-316.85961594 314.31971901 -312.59075558 310.03925319 -308.32144868 305.75923157 C-298.0196587 295.43296239 -287.71295796 285.11160232 -277.40538436 274.79110718 C-274.49555427 271.87760449 -271.58588931 268.96393692 -268.67626178 266.05023193 C-250.61256863 247.96129053 -232.54727369 229.87395043 -214.47717035 211.79141235 C-210.29567712 207.6069979 -206.11420706 203.42256028 -201.93276155 199.23809814 C-201.4132818 198.71824749 -200.89380206 198.19839683 -200.3585805 197.66279313 C-183.49144727 180.78348689 -166.6337431 163.89480353 -149.78135826 147.00077333 C-132.45409032 129.63076455 -115.11879901 112.26880662 -97.77276729 94.91753459 C-95.32575767 92.46978449 -92.87883318 90.02194931 -90.43195665 87.57406616 C-89.95038583 87.09230472 -89.468815 86.61054329 -88.97265112 86.11418302 C-81.21047771 78.34849061 -73.45673798 70.57442955 -65.70600638 62.79731926 C-57.92596442 54.99119714 -50.1366134 47.19444306 -42.33822761 39.40664178 C-38.1106459 35.18427048 -33.88730584 30.95786524 -29.6746496 26.72059822 C-25.82409325 22.84773329 -21.96235628 18.9864081 -18.09109254 15.13424504 C-16.68709497 13.73307332 -15.28738135 12.32759423 -13.89225237 10.91759193 C-12.006214 9.01266982 -10.10568053 7.12355309 -8.20045221 5.237854 C-7.37891208 4.39704004 -7.37891208 4.39704004 -6.54077518 3.53923994 C-2.83043118 -0.08711621 -2.83043118 -0.08711621 0 0 Z " fill="#0152B4" transform="translate(1837.2745584249496,401.07000732421875)"/>
<path d="M0 0 C175.89 0 351.78 0 533 0 C529.03105743 4.630433 525.10002415 9.04374289 520.79563332 13.32741451 C519.89885253 14.22592606 519.89885253 14.22592606 518.98395497 15.14258936 C516.98870315 17.14047892 514.98991794 19.13479441 512.99111938 21.12913513 C511.54204749 22.57864331 510.09319545 24.0283713 508.64454401 25.47829968 C504.6697933 29.45528412 500.6919351 33.42914757 496.71355987 37.40250576 C492.42142612 41.69031911 488.13218467 45.98102401 483.84259033 50.27137756 C476.41237666 57.70211547 468.98035217 65.13103867 461.54704666 72.5586834 C453.75255755 80.3472519 445.95910659 88.1368568 438.16703415 95.92784309 C437.68222521 96.41258329 437.19741628 96.89732348 436.69791616 97.39675278 C434.23573951 99.85859109 431.77358133 102.32044789 429.31143026 104.7823118 C411.88003046 122.21161219 394.44631421 139.63859384 377.01123047 157.06420898 C360.07515918 173.9910933 343.14014051 190.91902961 326.20654297 207.84838867 C325.68441256 208.37038756 325.16228214 208.89238644 324.6243296 209.43020348 C319.38079789 214.67241665 314.13728754 219.91465119 308.89379283 225.15690138 C298.21255265 235.83560548 287.5311699 246.51416697 276.84970093 257.19264221 C276.35860354 257.68360231 275.86750616 258.1745624 275.36152704 258.68040007 C242.57673977 291.45598943 209.78861928 324.22824422 177 357 C167.21705213 347.34157894 159.56920872 335.72604981 151.73046875 324.47802734 C149.83797018 321.76797367 147.93478715 319.06559154 146.03125 316.36328125 C138.80208826 306.07319995 131.77852948 295.72991461 125.23046875 284.99414062 C123.91481576 282.86194745 122.570674 280.74999683 121.21875 278.640625 C96.17919588 239.55591486 74.08357856 198.29068278 55 156 C54.2869873 154.42702148 54.2869873 154.42702148 53.55957031 152.82226562 C38.04668081 118.49633378 24.91624957 83.2800499 13.1875 47.5 C12.87275726 46.54416016 12.55801453 45.58832031 12.23373413 44.60351562 C8.77000771 34.05914638 5.49167562 23.48438106 2.55078125 12.78125 C2.29225876 11.84398071 2.03373627 10.90671143 1.76737976 9.94104004 C1.53388321 9.07426636 1.30038666 8.20749268 1.05981445 7.31445312 C0.75138359 6.17030945 0.75138359 6.17030945 0.4367218 5.00305176 C0 3 0 3 0 0 Z " fill="#0052B4" transform="translate(35,1291)"/>
<path d="M0 0 C0 175.89 0 351.78 0 533 C-4.62164941 529.03858622 -9.0329286 525.11355118 -13.31459045 520.82242393 C-13.91220938 520.22745684 -14.5098283 519.63248974 -15.12555689 519.01949334 C-17.1186835 517.03399947 -19.1082867 515.04501336 -21.09790039 513.05599976 C-22.54400608 511.61391255 -23.99032168 510.17203582 -25.43682861 508.73035109 C-29.40435909 504.77474686 -33.3687626 500.81602174 -37.33262181 496.85673904 C-41.61027367 492.58505751 -45.89073949 488.31619715 -50.17076111 484.04689026 C-60.49703028 473.74510027 -70.81839036 463.43839953 -81.1388855 453.13082594 C-84.05238819 450.22099584 -86.96605575 447.31133088 -89.87976074 444.40170336 C-107.96870215 426.33801021 -126.05604224 408.27271527 -144.13858032 390.20261192 C-148.32299478 386.02111869 -152.50743239 381.83964864 -156.69189453 377.65820312 C-157.21174519 377.13872338 -157.73159584 376.61924363 -158.26719955 376.08402208 C-175.14650579 359.21688885 -192.03518915 342.35918468 -208.92921935 325.50679983 C-226.29922812 308.1795319 -243.66118606 290.84424059 -261.01245809 273.49820887 C-263.46020819 271.05119925 -265.90804337 268.60427475 -268.35592651 266.15739822 C-268.83768795 265.6758274 -269.31944939 265.19425658 -269.81580966 264.6980927 C-277.58150207 256.93591929 -285.35556313 249.18217956 -293.13267342 241.43144795 C-300.93879554 233.651406 -308.73554961 225.86205498 -316.52335089 218.06366919 C-320.74572219 213.83608748 -324.97212743 209.61274741 -329.20939445 205.40009117 C-333.08225939 201.54953482 -336.94358457 197.68779785 -340.79574764 193.81653412 C-342.19691936 192.41253655 -343.60239845 191.01282293 -345.01240075 189.61769395 C-346.91732286 187.73165558 -348.80643958 185.83112211 -350.69213867 183.92589378 C-351.25268131 183.37820036 -351.81322395 182.83050694 -352.39075273 182.26621675 C-353.89445496 180.72768819 -353.89445496 180.72768819 -356 178 C-355.91342535 175.18716426 -355.42815327 174.41751427 -353.42797852 172.46704102 C-352.75178467 171.98420654 -352.07559082 171.50137207 -351.37890625 171.00390625 C-350.61787598 170.4521875 -349.8568457 169.90046875 -349.07275391 169.33203125 C-348.24437012 168.74808594 -347.41598633 168.16414062 -346.5625 167.5625 C-345.70575684 166.94632813 -344.84901367 166.33015625 -343.96630859 165.6953125 C-342.18349004 164.41396284 -340.39763648 163.1368262 -338.60888672 161.86376953 C-336.21654687 160.15469949 -333.84116649 158.42546955 -331.47265625 156.68359375 C-320.21985591 148.42624295 -308.67116669 140.65153154 -297 133 C-296.2589502 132.51289551 -295.51790039 132.02579102 -294.75439453 131.52392578 C-266.97517525 113.29161944 -238.34021805 96.59012726 -209 81 C-208.00178223 80.46665039 -207.00356445 79.93330078 -205.97509766 79.38378906 C-189.59121295 70.64746623 -172.9460568 62.58479168 -156 55 C-155.30908264 54.69042358 -154.61816528 54.38084717 -153.90631104 54.06188965 C-109.81794286 34.34041044 -64.40707961 17.30094816 -17.9375 4.0625 C-17.18780945 3.84863647 -16.4381189 3.63477295 -15.66571045 3.41442871 C-3.62213179 0 -3.62213179 0 0 0 Z " fill="#0152B4" transform="translate(757,35)"/>
<path d="M0 0 C4.62164941 3.96141378 9.0329286 7.88644882 13.31459045 12.17757607 C13.91220938 12.77254316 14.5098283 13.36751026 15.12555689 13.98050666 C17.1186835 15.96600053 19.1082867 17.95498664 21.09790039 19.94400024 C22.54400608 21.38608745 23.99032168 22.82796418 25.43682861 24.26964891 C29.40435909 28.22525314 33.3687626 32.18397826 37.33262181 36.14326096 C41.61027367 40.41494249 45.89073949 44.68380285 50.17076111 48.95310974 C60.49703028 59.25489973 70.81839036 69.56160047 81.1388855 79.86917406 C84.05238819 82.77900416 86.96605575 85.68866912 89.87976074 88.59829664 C107.96870215 106.66198979 126.05604224 124.72728473 144.13858032 142.79738808 C148.32299478 146.97888131 152.50743239 151.16035136 156.69189453 155.34179688 C157.21174519 155.86127662 157.73159584 156.38075637 158.26719955 156.91597792 C175.14650579 173.78311115 192.03518915 190.64081532 208.92921935 207.49320017 C226.29922812 224.8204681 243.66118606 242.15575941 261.01245809 259.50179113 C263.46020819 261.94880075 265.90804337 264.39572525 268.35592651 266.84260178 C268.83768795 267.3241726 269.31944939 267.80574342 269.81580966 268.3019073 C277.58150207 276.06408071 285.35556313 283.81782044 293.13267342 291.56855205 C300.93879554 299.348594 308.73554961 307.13794502 316.52335089 314.93633081 C320.74572219 319.16391252 324.97212743 323.38725259 329.20939445 327.59990883 C333.08225939 331.45046518 336.94358457 335.31220215 340.79574764 339.18346588 C342.19691936 340.58746345 343.60239845 341.98717707 345.01240075 343.38230605 C346.91732286 345.26834442 348.80643958 347.16887789 350.69213867 349.07410622 C351.53295263 349.89564635 351.53295263 349.89564635 352.39075273 350.73378325 C353.89445496 352.27231181 353.89445496 352.27231181 356 355 C355.91342535 357.81283574 355.42815327 358.58248573 353.42797852 360.53295898 C352.41368774 361.25721069 352.41368774 361.25721069 351.37890625 361.99609375 C350.61787598 362.5478125 349.8568457 363.09953125 349.07275391 363.66796875 C348.24437012 364.25191406 347.41598633 364.83585937 346.5625 365.4375 C345.70575684 366.05367187 344.84901367 366.66984375 343.96630859 367.3046875 C342.18349004 368.58603716 340.39763648 369.8631738 338.60888672 371.13623047 C336.21654687 372.84530051 333.84116649 374.57453045 331.47265625 376.31640625 C320.21985591 384.57375705 308.67116669 392.34846846 297 400 C296.2589502 400.48710449 295.51790039 400.97420898 294.75439453 401.47607422 C263.48605839 421.99838902 231.18946611 441.26839414 197.5859375 457.734375 C193.8629108 459.56076546 190.16893543 461.44056301 186.4765625 463.328125 C158.6708952 477.50390927 130.11208118 489.76827069 101 501 C99.85047852 501.44375977 98.70095703 501.88751953 97.51660156 502.34472656 C81.00877235 508.66438575 64.29412124 514.30736396 47.5 519.8125 C46.54416016 520.12724274 45.58832031 520.44198547 44.60351562 520.76626587 C34.05914638 524.22999229 23.48438106 527.50832438 12.78125 530.44921875 C11.84398071 530.70774124 10.90671143 530.96626373 9.94104004 531.23262024 C8.64087952 531.58286507 8.64087952 531.58286507 7.31445312 531.94018555 C6.55169067 532.14580612 5.78892822 532.3514267 5.00305176 532.5632782 C3 533 3 533 0 533 C0 357.11 0 181.22 0 0 Z " fill="#0052B4" transform="translate(1291,1480)"/>
<path d="M0 0 C175.89 0 351.78 0 533 0 C531.78436219 6.68600795 530.6354652 12.86525586 528.63671875 19.26953125 C528.40887695 20.01575745 528.18103516 20.76198364 527.94628906 21.53082275 C527.20111532 23.96052218 526.44538201 26.38673661 525.6875 28.8125 C525.29275986 30.08346024 525.29275986 30.08346024 524.89004517 31.38009644 C508.4610489 84.21347854 488.49783498 135.37473164 464 185 C463.27726957 186.47392196 462.55460127 187.94787439 461.83203125 189.421875 C460.29814935 192.534412 458.73807555 195.63270221 457.16113281 198.72363281 C456.28280162 200.44557563 455.40771777 202.16917538 454.53417969 203.89355469 C446.68916793 219.35408233 438.43601436 234.47853571 429.56054688 249.37109375 C428.15503283 251.73883079 426.76757625 254.11557583 425.390625 256.5 C405.13896886 291.51320848 381.94842516 325.17635649 357 357 C352.35560771 353.116161 347.943548 349.08779909 343.67258549 344.79842663 C343.07357779 344.20087237 342.47457009 343.60331811 341.85741064 342.98765615 C339.85952682 340.99340914 337.86520699 338.9956369 335.87086487 336.99784851 C334.42135477 335.54949113 332.97162683 334.10135173 331.52170032 332.65341121 C327.54471245 328.68059563 323.57084682 324.70466983 319.59749424 320.72821891 C315.30966436 316.43812674 311.01895843 312.15091267 306.72862244 307.86332703 C298.81392152 299.95281629 290.90149943 292.04003056 282.99026265 284.12605577 C275.68515557 276.81843283 268.37911938 269.5117404 261.07215691 262.20597267 C260.34504661 261.47897696 260.34504661 261.47897696 259.60324722 260.73729446 C257.63557918 258.76993775 255.6679076 256.80258457 253.70023021 254.83523721 C235.24989211 236.38795687 216.8024695 217.93776348 198.35635241 199.48626252 C181.95722322 183.08238334 165.55550452 166.68109756 149.15161133 150.28198242 C130.72474452 131.86046496 112.29948748 113.43733988 93.87684196 95.01160079 C91.91494207 93.04938018 89.95303824 91.0871635 87.99113274 89.1249485 C87.50805557 88.64179226 87.0249784 88.15863602 86.52726254 87.66083867 C79.22073625 80.35317318 71.91297357 73.04674564 64.60461617 65.74091148 C56.30243085 57.44157824 48.00206807 49.14042617 39.70398069 40.83699527 C35.46630868 36.59668484 31.22782203 32.35719695 26.98718643 28.11985016 C23.11238501 24.24800857 19.23986335 20.37390253 15.36921906 16.49790523 C13.96183391 15.0893946 12.55358772 13.68174374 11.14443726 12.27499922 C9.24283733 10.37639948 7.34428276 8.4748082 5.44652653 6.57236767 C4.88700656 6.01518886 4.32748658 5.45801006 3.75101146 4.88394704 C0 1.11415047 0 1.11415047 0 0 Z " fill="#0052B4" transform="translate(1480,1291)"/>
<path d="M0 0 C0 175.89 0 351.78 0 533 C-6.68600795 531.78436219 -12.86525586 530.6354652 -19.26953125 528.63671875 C-20.01575745 528.40887695 -20.76198364 528.18103516 -21.53082275 527.94628906 C-23.96052218 527.20111532 -26.38673661 526.44538201 -28.8125 525.6875 C-30.08346024 525.29275986 -30.08346024 525.29275986 -31.38009644 524.89004517 C-94.51832644 505.25666748 -156.97953448 480.94832805 -215 449 C-216.71989994 448.06217014 -218.43981529 447.12436843 -220.15997314 446.18701172 C-245.30303885 432.475724 -245.30303885 432.475724 -256.82958984 425.33935547 C-259.59451819 423.6331241 -262.36991795 421.94434117 -265.14453125 420.25390625 C-276.22174935 413.49093105 -287.27202129 406.70994698 -297.98388672 399.37695312 C-300.36986712 397.74739034 -302.76505139 396.13174576 -305.16015625 394.515625 C-322.4643836 382.81311571 -339.33893874 370.59794141 -356 358 C-355.13265927 353.47800089 -352.53618462 351.12143452 -349.35119629 347.97925949 C-348.75265776 347.37695983 -348.15411922 346.77466017 -347.53744316 346.154109 C-345.51446344 344.12213115 -343.48089002 342.10109349 -341.44726562 340.07977295 C-339.98629586 338.61678031 -338.5259838 337.15313062 -337.06627655 335.6888783 C-333.04105198 331.65497449 -329.00648225 327.63053038 -324.97037506 323.60751915 C-320.62410291 319.27211317 -316.28645733 314.92809159 -311.94775391 310.58511353 C-304.42529696 303.05766528 -296.89735547 295.5357427 -289.36547852 288.01772308 C-281.46429883 280.13106331 -273.56600382 272.24153402 -265.67163086 264.34806061 C-265.18107796 263.85756881 -264.69052507 263.367077 -264.18510693 262.86172182 C-262.19396674 260.87081113 -260.20284772 258.87987929 -258.21175656 256.88891958 C-240.05894955 238.73732448 -221.89890506 220.5929881 -203.734375 202.453125 C-186.57331029 185.31535991 -169.41681796 168.17303532 -152.265625 151.02539062 C-151.7371438 150.49702094 -151.20866259 149.96865125 -150.66416681 149.42427036 C-148.53360135 147.29415374 -146.40303932 145.16403369 -144.27247748 143.03391345 C-143.21080007 141.97245643 -142.14912221 140.91099986 -141.08744389 139.84954374 C-140.02842426 138.79074547 -138.96940592 137.73194591 -137.91038889 136.67314505 C-121.06465472 119.83092243 -104.21494723 102.99267557 -87.36455297 86.15511547 C-82.42650243 81.22078781 -77.48868153 76.28623066 -72.55136108 71.35117245 C-62.16648901 60.97110317 -51.78042325 50.59223656 -41.38988209 40.21784112 C-37.09089789 35.9254848 -32.79270691 31.6323422 -28.49664307 27.33706284 C-24.57095788 23.41216004 -20.64299173 19.48955573 -16.71311283 15.5688521 C-15.28494113 14.14320494 -13.85762558 12.71669955 -12.43121243 11.2892929 C-10.50602231 9.36302013 -8.57783952 7.4397963 -6.64880371 5.51737595 C-6.08377829 4.95058105 -5.51875286 4.38378615 -4.93660545 3.79981565 C-1.11415943 0 -1.11415943 0 0 0 Z " fill="#0052B4" transform="translate(757,1480)"/>
<path d="M0 0 C4.46653487 1.63968537 7.41738282 3.91946691 10.8125 7.1875 C11.87826639 8.18948312 12.94467269 9.19078601 14.01171875 10.19140625 C14.52524902 10.67625488 15.0387793 11.16110352 15.56787109 11.66064453 C17.38363038 13.35877877 19.24537429 14.99803273 21.125 16.625 C25.80482668 20.68981866 30.41076862 24.83328993 35 29 C35.49661133 29.45004395 35.99322266 29.90008789 36.50488281 30.36376953 C43.35604564 36.5845228 50.04261723 42.92793495 56.51098633 49.54785156 C59.8433061 52.93650583 63.30460045 56.00953509 67 59 C63.23597063 63.49123303 59.35874529 67.78683661 55.20727158 71.92136288 C54.65391463 72.47647286 54.10055768 73.03158284 53.53043234 73.60351434 C51.6865153 75.45206154 49.83908919 77.29705977 47.99163818 79.14207458 C46.65124026 80.48434195 45.31105836 81.82682508 43.97107339 83.1695047 C40.29663194 86.8500534 36.61908178 90.527482 32.94099569 94.20438802 C28.97196638 98.17321307 25.00580163 102.14489904 21.03924561 106.11619568 C13.27312142 113.89061946 5.50422677 121.66226898 -2.26576927 129.43282294 C-8.57734451 135.74487336 -14.8881293 142.05771298 -21.19835663 148.37111092 C-36.17146163 163.35158644 -51.14517415 178.33145354 -66.12222672 193.30798244 C-66.60082691 193.78656706 -67.0794271 194.26515167 -67.57253033 194.75823885 C-69.99824551 197.18387092 -72.42396866 199.60949503 -74.84969357 202.03511738 C-75.33144958 202.51685345 -75.8132056 202.99858953 -76.30956029 203.49492366 C-77.28378474 204.46910768 -78.25800987 205.44329101 -79.23223568 206.41747366 C-94.40888722 221.59351168 -109.58146489 236.77361242 -124.75097656 251.95678711 C-141.79320878 269.01436275 -158.83880244 286.06856771 -175.88916755 303.11801487 C-184.9179611 312.14647576 -193.94519292 321.17648579 -202.96845245 330.21047783 C-210.64487976 337.8959772 -218.32471633 345.578049 -226.00908878 353.25560474 C-229.93283335 357.17606826 -233.85491184 361.0981627 -237.77270508 365.02457428 C-241.35318857 368.61285353 -244.93818335 372.196558 -248.52695867 375.77654374 C-249.83003878 377.07807351 -251.13140188 378.38132487 -252.43094304 379.68638819 C-254.18630301 381.44871714 -255.94759822 383.2048824 -257.71063614 384.95952511 C-258.22347495 385.4773321 -258.73631376 385.99513909 -259.26469314 386.5286372 C-262.77170357 390 -262.77170357 390 -265 390 C-265.2297905 390.55455242 -265.45958099 391.10910484 -265.69633484 391.68046188 C-267.36469418 394.64887986 -269.45018066 396.7021193 -271.85864258 399.11260986 C-272.35713368 399.61422095 -272.85562479 400.11583204 -273.36922169 400.63264346 C-275.0395964 402.31099096 -276.71702355 403.98210447 -278.39453125 405.65332031 C-279.59395188 406.85545105 -280.79294663 408.05800684 -281.99154663 409.26095581 C-285.24711213 412.52564323 -288.5089774 415.78396762 -291.77227402 419.04092503 C-295.18296204 422.44655441 -298.58877326 425.85705513 -301.99536133 429.26678467 C-307.71499248 434.99005486 -313.43882922 440.70909366 -319.16503906 446.42578125 C-325.79328575 453.04313313 -332.4142825 459.66767344 -339.03157902 466.29597402 C-344.70775908 471.9812163 -350.38781024 477.66256893 -356.07114315 483.34066081 C-359.46809745 486.73449088 -362.86367126 490.12967249 -366.25576782 493.52835846 C-369.44248143 496.7208298 -372.63401013 499.9084063 -375.82939529 503.09219742 C-377.00424614 504.26439367 -378.17737971 505.43831385 -379.34870529 506.61403275 C-380.94169604 508.2124487 -382.54065316 509.80463901 -384.14135742 511.39532471 C-385.03658615 512.28979939 -385.93181488 513.18427406 -386.85417175 514.10585403 C-389 516 -389 516 -391 516 C-406.6527268 405.98871433 -406.6527268 405.98871433 -375.82202148 364.64877319 C-369.39099912 356.29973436 -362.39820303 348.51526753 -355.10742188 340.91674805 C-354.64262338 340.43118382 -354.17782488 339.9456196 -353.69894157 339.44534131 C-341.88188078 327.13121168 -329.54096924 315.40512075 -316.95882558 303.87938902 C-308.62377054 296.24415276 -300.45216848 288.46698081 -292.39683533 280.53717995 C-291.58374294 279.73697624 -291.58374294 279.73697624 -290.75422445 278.92060681 C-287.99972918 276.20842918 -285.24755029 273.49391358 -282.49625176 270.77849362 C-263.22261578 251.76440606 -243.67887037 233.05378667 -223.94677734 214.5168457 C-204.83217207 196.55865887 -185.85984462 178.46746875 -167.05322266 160.18676758 C-166.46904679 159.61903249 -165.88487093 159.0512974 -165.28299277 158.46635821 C-159.41423386 152.76247712 -153.5481455 147.05585611 -147.68400466 141.34722751 C-135.74815256 129.72802571 -123.79459069 118.12711855 -111.8302002 106.53730774 C-111.28065403 106.00492282 -110.73110786 105.47253789 -110.16490877 104.92402009 C-73.73892032 69.63959246 -36.90230853 34.78520935 0 0 Z " fill="#D80128" transform="translate(1682,240)"/>
<path d="M0 0 C3.26488369 0.58212823 4.90649106 1.52995878 7.234375 3.87109375 C7.80800781 4.44537109 8.38164062 5.01964844 8.97265625 5.61132812 C9.55917969 6.21396484 10.14570313 6.81660156 10.75 7.4375 C11.35199219 8.03626953 11.95398438 8.63503906 12.57421875 9.25195312 C17 13.73293119 17 13.73293119 17 16 C17.59329102 16.26876953 18.18658203 16.53753906 18.79785156 16.81445312 C21.00540033 18.00290732 22.46542882 19.20742389 24.234375 20.96875 C24.80800781 21.53980469 25.38164062 22.11085938 25.97265625 22.69921875 C26.55917969 23.29347656 27.14570313 23.88773437 27.75 24.5 C28.35199219 25.09425781 28.95398438 25.68851562 29.57421875 26.30078125 C30.14269531 26.87183594 30.71117187 27.44289063 31.296875 28.03125 C31.81604492 28.55267578 32.33521484 29.07410156 32.87011719 29.61132812 C34 31 34 31 34 33 C34.53109375 33.20625 35.0621875 33.4125 35.609375 33.625 C39.00773436 35.57961192 41.51055928 38.22123717 44.25 41 C44.80429687 41.5465625 45.35859375 42.093125 45.9296875 42.65625 C50 46.7466133 50 46.7466133 50 49 C50.88993652 49.4031543 50.88993652 49.4031543 51.79785156 49.81445312 C54.00540033 51.00290732 55.46542882 52.20742389 57.234375 53.96875 C57.80800781 54.53980469 58.38164062 55.11085938 58.97265625 55.69921875 C59.55917969 56.29347656 60.14570313 56.88773437 60.75 57.5 C61.35199219 58.09425781 61.95398438 58.68851562 62.57421875 59.30078125 C63.14269531 59.87183594 63.71117187 60.44289063 64.296875 61.03125 C64.81604492 61.55267578 65.33521484 62.07410156 65.87011719 62.61132812 C67 64 67 64 67 66 C67.89766204 66.41038242 67.89766204 66.41038242 68.81345867 66.82905539 C70.93011033 67.96257243 72.29801505 69.04815967 73.98466134 70.73511368 C74.54981639 71.29551792 75.11497144 71.85592215 75.69725239 72.43330833 C76.30923037 73.05025449 76.92120835 73.66720065 77.55173111 74.30284214 C78.21143548 74.95993922 78.87113984 75.6170363 79.55083525 76.29404542 C81.77567125 78.51255007 83.99326473 80.73815759 86.21099854 82.96376038 C87.81444778 84.56562239 89.4183346 86.16704649 91.02262282 87.76806825 C95.44191498 92.18092684 99.85491569 96.60003126 104.2669425 101.02015221 C108.53345066 105.29254871 112.8046391 109.5602577 117.07571054 113.82809104 C125.8141947 122.56029509 134.54794099 131.29722353 143.27893829 140.03691292 C151.92592073 148.6925021 160.57474671 157.34624167 169.22612762 165.99743462 C170.03256901 166.80386454 170.03256901 166.80386454 170.85530215 167.62658597 C173.03753859 169.8087815 175.21978737 171.99096468 177.40205301 174.17313102 C197.8816909 194.65186242 218.35589491 215.13601845 238.82738588 235.62289356 C257.03072234 253.83985918 275.23775413 272.05312291 293.44824219 290.26293945 C294.6178416 291.43249845 295.78744098 292.60205748 296.95704034 293.77161653 C297.82436709 294.63891275 297.82436709 294.63891275 298.70921558 295.5237301 C301.61964726 298.43406098 304.53007382 301.34439697 307.44049454 304.25473881 C308.0146285 304.82885606 308.58876246 305.40297331 309.18029443 305.99448805 C324.38140672 321.19523554 339.58006905 336.39843217 354.77789474 351.60246557 C355.31819024 352.14298134 355.85848574 352.68349712 356.41515383 353.24039215 C358.58797669 355.41410328 360.76079949 357.58781447 362.93360933 359.76153861 C370.50550585 367.33659968 378.07823167 374.9108308 385.6514898 382.48453057 C395.407079 392.24071576 405.16097722 401.9985865 414.91193178 411.75940401 C419.61740871 416.46955776 424.32373095 421.17886105 429.03217316 425.88605118 C433.33455177 430.1873411 437.6346422 434.49090432 441.9328427 438.79636925 C443.49576878 440.36112044 445.05955458 441.92501344 446.62424305 443.48800231 C448.73567055 445.59738861 450.84405388 447.70976915 452.95163345 449.822999 C453.88364742 450.75192998 453.88364742 450.75192998 454.83448994 451.69962725 C459 455.88584509 459 455.88584509 459 457 C347.89019391 472.56626652 347.89019391 472.56626652 306.65075684 441.90652466 C298.33015782 435.51523098 290.585575 428.56642627 283.01855469 421.30688477 C282.5355981 420.84466189 282.05264151 420.38243901 281.55504987 419.90620939 C269.3126814 408.15964713 257.66327074 395.88603533 246.2158129 383.36871888 C238.63239686 375.07661527 230.90561089 366.94988835 223.02454376 358.94013786 C222.22903758 358.1314222 222.22903758 358.1314222 221.41746057 357.30636886 C218.72111803 354.56664105 216.02240828 351.82925775 213.32277921 349.09276878 C194.42150621 329.92507387 175.82597667 310.48574614 157.40576172 290.85620117 C139.56501191 271.84562728 121.59167536 252.97689348 103.42822266 234.27416992 C102.86417333 233.69326524 102.30012401 233.11236055 101.71898228 232.51385269 C95.4893745 226.09842362 89.25599934 219.68666425 83.02096319 213.27651131 C72.03588671 201.98239594 61.06856223 190.67107741 50.10968018 179.35154724 C49.58037194 178.80487626 49.0510637 178.25820528 48.50571582 177.69496851 C22.15811067 150.48019027 -3.93467443 123.02456602 -29.94065674 95.48343954 C-32.38980083 92.88983563 -34.8398147 90.29705597 -37.289994 87.70443004 C-40.24616283 84.57639611 -43.19836505 81.44469304 -46.14791989 78.31042296 C-47.44206459 76.93957332 -48.73631884 75.56882711 -50.0307045 74.19820499 C-50.90493385 73.26600995 -50.90493385 73.26600995 -51.7968244 72.31498268 C-54.58916307 69.2637725 -54.58916307 69.2637725 -58 67 C-56.62577847 58.00509546 -45.63425014 49.32346293 -39.54296875 42.7578125 C-37.55011761 40.59659452 -35.60292215 38.41653031 -33.6875 36.1875 C-25.25867008 26.49132811 -16.36113094 17.1911573 -7.17529297 8.2121582 C-4.53643797 5.61749456 -2.11359578 3.04328739 0 0 Z " fill="#D80127" transform="translate(298,300)"/>
<path d="M0 0 C0.66 0 1.32 0 2 0 C17.55329918 110.11021949 17.55329918 110.11021949 -13.07974243 151.25299072 C-19.46840074 159.5593933 -26.41114957 167.2938273 -33.66137695 174.85205078 C-34.12320355 175.33464311 -34.58503015 175.81723543 -35.0608515 176.31445177 C-46.80070783 188.5513059 -59.06407989 200.20001295 -71.56894898 211.64838553 C-79.85445208 219.23388435 -87.97626105 226.96141958 -95.98198509 234.84164047 C-96.52083862 235.37190154 -97.05969214 235.90216261 -97.61487456 236.44849219 C-100.35315781 239.14445684 -103.08912414 241.84276013 -105.82420995 244.54196809 C-124.98464685 263.44285814 -144.41506562 282.04021245 -164.03393555 300.46386719 C-183.03080563 318.30475291 -201.8857228 336.27827069 -220.57495117 354.44140625 C-221.44545901 355.28725293 -221.44545901 355.28725293 -222.33355287 356.15018743 C-228.16412405 361.81587097 -233.99202187 367.48429777 -239.81796392 373.15474107 C-251.68388354 384.70384047 -263.5674065 396.23475165 -275.4617157 407.75460815 C-276.00825826 408.28398947 -276.55480082 408.81337079 -277.11790528 409.35879396 C-309.96982308 441.1755298 -343.1617512 472.63501562 -376.43141443 504.01417649 C-377.13218955 504.67531382 -377.83296468 505.33645115 -378.55497542 506.01762295 C-379.84392448 507.23346123 -381.13323796 508.44891336 -382.42300037 509.66388881 C-384.98212625 512.07777621 -387.52093032 514.50405761 -390 517 C-397.63093597 510.51648944 -405.19100476 503.9845565 -412.5703125 497.21484375 C-414.60515415 495.35993183 -416.66321247 493.54571202 -418.75 491.75 C-429.95857062 481.98547835 -440.55886926 471.57200843 -451 461 C-452.66420069 459.33084306 -454.33179064 457.66515403 -456 456 C-455.48799421 455.55870851 -454.97598843 455.11741701 -454.44846731 454.66275305 C-445.20680605 446.52863479 -436.60595992 437.74478966 -427.91026306 429.0372467 C-426.06702031 427.195157 -424.22355976 425.35328521 -422.37990099 423.51161188 C-418.38140757 419.51671688 -414.38476079 415.519982 -410.38934517 411.5220089 C-404.44829886 405.57717007 -398.50438467 399.63520479 -392.55991616 393.69378819 C-381.94362878 383.08275876 -371.33019453 372.46887921 -360.71798176 361.85377488 C-351.43597416 352.56925057 -342.15303625 343.28565767 -332.86917305 334.00298882 C-332.25308125 333.3869734 -331.63698946 332.77095799 -331.00222821 332.13627545 C-328.50132536 329.63568393 -326.00041898 327.13509595 -323.49950678 324.63451378 C-300.05369985 301.19176397 -276.61080701 277.74610198 -253.16922122 254.29913132 C-232.33214379 233.45730375 -211.49247615 212.61806945 -190.65063477 191.78100586 C-167.23416259 168.36988375 -143.81930087 144.95715289 -120.40705019 121.54180902 C-117.91353167 119.04796977 -115.4200092 116.55413447 -112.92648506 114.06030083 C-112.31251552 113.44625221 -111.69854599 112.8322036 -111.06597131 112.19954745 C-101.78242432 102.91486157 -92.49764138 93.63141286 -83.21226311 84.34855843 C-72.66380563 73.80295381 -62.11712382 63.25557703 -51.57281231 52.70582689 C-45.66682427 46.79689339 -39.75945192 40.88935175 -33.85011079 34.98377154 C-29.44906225 30.58521608 -25.05060761 26.1840757 -20.65319712 21.78188329 C-18.86567052 19.99323217 -17.07728502 18.20543896 -15.28799247 16.41855443 C-12.87131309 14.00488015 -10.45768077 11.58820101 -8.04484463 9.17068577 C-7.33639639 8.4645787 -6.62794816 7.75847163 -5.8980318 7.03096738 C-5.2604761 6.39090817 -4.62292041 5.75084896 -3.96604484 5.09139401 C-3.4131472 4.5384286 -2.86024955 3.9854632 -2.29059744 3.41574127 C-0.8917197 2.01016355 -0.8917197 2.01016355 0 0 Z " fill="#D80027" transform="translate(755,1292)"/>
<path d="M0 0 C110.01128567 -15.6527268 110.01128567 -15.6527268 151.35122681 15.17797852 C159.70026564 21.60900088 167.48473247 28.60179697 175.08325195 35.89257812 C175.56881618 36.35737662 176.0543804 36.82217512 176.55465869 37.30105843 C188.86878832 49.11811922 200.59487925 61.45903076 212.12061098 74.04117442 C219.75584724 82.37622946 227.53301919 90.54783152 235.46282005 98.60316467 C235.99628919 99.14522626 236.52975833 99.68728785 237.07939319 100.24577555 C239.79157082 103.00027082 242.50608642 105.75244971 245.22150638 108.50374824 C264.23559394 127.77738422 282.94621333 147.32112963 301.4831543 167.05322266 C319.44134113 186.16782793 337.53253125 205.14015538 355.81323242 223.94677734 C356.38096751 224.53095321 356.9487026 225.11512907 357.53364179 225.71700723 C363.23752288 231.58576614 368.94414389 237.4518545 374.65277249 243.31599534 C386.27197429 255.25184744 397.87288145 267.20540931 409.46269226 279.1697998 C409.99507718 279.71934597 410.52746211 280.26889214 411.07597991 280.83509123 C446.36040754 317.26107968 481.21479065 354.09769147 516 391 C514.36031463 395.46653487 512.08053309 398.41738282 508.8125 401.8125 C507.81051688 402.87826639 506.80921399 403.94467269 505.80859375 405.01171875 C505.32374512 405.52524902 504.83889648 406.0387793 504.33935547 406.56787109 C502.64122123 408.38363038 501.00196727 410.24537429 499.375 412.125 C495.31017522 416.80483374 491.16638569 421.41046576 487 426 C486.55527344 426.49129395 486.11054687 426.98258789 485.65234375 427.48876953 C479.17016557 434.63677034 472.52616847 441.57773808 465.63208008 448.33105469 C463.31231166 450.61581151 461.18157646 452.74562751 459.28515625 455.40234375 C458.86105469 455.92957031 458.43695312 456.45679688 458 457 C455 457 455 457 453.45074164 455.52938449 C452.90643199 454.85859318 452.36212234 454.18780186 451.80131847 453.49668354 C448.13070642 449.12072559 444.22263519 445.08320324 440.17890453 441.05306339 C439.41841215 440.29111757 438.65791977 439.52917175 437.87438217 438.74413666 C435.33187834 436.19799073 432.78583851 433.65541111 430.23979187 431.11280823 C428.39530321 429.26716706 426.55103255 427.421308 424.70696098 425.57525009 C420.70063111 421.56531584 416.69245354 417.55723603 412.68304443 413.55038071 C406.7211684 407.59229175 400.76215907 401.63134175 394.80370394 395.66983191 C384.1626682 385.0235338 373.518777 374.38009414 362.87366506 363.73787194 C353.56170213 354.42842448 344.25066909 345.11804825 334.94056129 335.80674553 C334.32302206 335.18912991 333.70548282 334.57151429 333.06923027 333.93518304 C330.56250918 331.42815061 328.05579161 328.92111464 325.54907986 326.41407286 C302.04060476 302.90253952 278.52921553 279.39392221 255.01651985 255.88660974 C234.11459977 234.98943873 213.21527131 214.08967913 192.31811523 193.18774414 C168.8447479 169.7090267 145.3697717 146.23191981 121.89218265 122.75742382 C119.39157187 120.25713377 116.89096504 117.75683978 114.39035988 115.25654411 C113.77463511 114.64089842 113.15891035 114.02525274 112.52452725 113.39095112 C103.21362354 104.08118639 93.90395719 94.77018551 84.59488487 85.45858955 C74.01812371 74.87897541 63.43959015 64.30113713 52.85868349 53.72566891 C46.93198594 47.80191686 41.0066803 41.87678043 35.08333603 35.94967528 C30.6714732 31.53531936 26.25702542 27.12355736 21.84152565 22.71283948 C20.0474312 20.91986956 18.25419468 19.12604072 16.46186682 17.33130486 C14.04082309 14.90725605 11.61677446 12.4862542 9.19188976 10.06604862 C8.48360666 9.35542435 7.77532355 8.64480008 7.04557732 7.91264173 C6.40357224 7.27314017 5.76156715 6.63363861 5.10010737 5.97475821 C4.54544664 5.42016524 3.99078592 4.86557227 3.41931729 4.29417345 C2.01094718 2.89206275 2.01094718 2.89206275 0 2 C0 1.34 0 0.68 0 0 Z " fill="#D80027" transform="translate(1292,1291)"/>
<path d="M0 0 C0.99 0.33 1.98 0.66 3 1 C-1.95 5.95 -6.9 10.9 -12 16 C-12.66 15.67 -13.32 15.34 -14 15 C-13.24074219 14.25234375 -12.48148437 13.5046875 -11.69921875 12.734375 C-10.69517864 11.73971844 -9.69127983 10.74491923 -8.6875 9.75 C-8.18798828 9.25886719 -7.68847656 8.76773437 -7.17382812 8.26171875 C-4.54328661 5.64859804 -2.12314838 3.04342089 0 0 Z " fill="#DF3552" transform="translate(298,300)"/>
</svg>
